<?xml version="1.0" encoding="UTF-8"?>
<svg xmlns="http://www.w3.org/2000/svg" xmlns:xlink="http://www.w3.org/1999/xlink" width="425.1969pt" height="141.7323pt" viewBox="0 0 425.1969 141.7323" version="1.1">
<defs>
<clipPath id="clip1">
  <path d="M 2 7 L 112 7 L 112 135 L 2 135 Z M 2 7 "/>
</clipPath>
<clipPath id="clip2">
  <path d="M 12.550781 7.71875 L 412.648438 7.71875 C 418.394531 7.71875 423.09375 12.417969 423.09375 18.164063 L 423.09375 123.570313 C 423.09375 129.316406 418.394531 134.015625 412.648438 134.015625 L 12.550781 134.015625 C 6.804688 134.015625 2.105469 129.316406 2.105469 123.570313 L 2.105469 18.164063 C 2.105469 12.417969 6.804688 7.71875 12.550781 7.71875 "/>
</clipPath>
<clipPath id="clip3">
  <path d="M 50 39 L 111 39 L 111 98 L 50 98 Z M 50 39 "/>
</clipPath>
<clipPath id="clip4">
  <path d="M 12.550781 7.71875 L 412.648438 7.71875 C 418.394531 7.71875 423.09375 12.417969 423.09375 18.164063 L 423.09375 123.570313 C 423.09375 129.316406 418.394531 134.015625 412.648438 134.015625 L 12.550781 134.015625 C 6.804688 134.015625 2.105469 129.316406 2.105469 123.570313 L 2.105469 18.164063 C 2.105469 12.417969 6.804688 7.71875 12.550781 7.71875 "/>
</clipPath>
<clipPath id="clip5">
  <path d="M 14 39 L 60 39 L 60 98 L 14 98 Z M 14 39 "/>
</clipPath>
<clipPath id="clip6">
  <path d="M 12.550781 7.71875 L 412.648438 7.71875 C 418.394531 7.71875 423.09375 12.417969 423.09375 18.164063 L 423.09375 123.570313 C 423.09375 129.316406 418.394531 134.015625 412.648438 134.015625 L 12.550781 134.015625 C 6.804688 134.015625 2.105469 129.316406 2.105469 123.570313 L 2.105469 18.164063 C 2.105469 12.417969 6.804688 7.71875 12.550781 7.71875 "/>
</clipPath>
<clipPath id="clip7">
  <path d="M 59 17 L 342 17 L 342 69 L 59 69 Z M 59 17 "/>
</clipPath>
<clipPath id="clip8">
  <path d="M 12.550781 7.71875 L 412.648438 7.71875 C 418.394531 7.71875 423.09375 12.417969 423.09375 18.164063 L 423.09375 123.570313 C 423.09375 129.316406 418.394531 134.015625 412.648438 134.015625 L 12.550781 134.015625 C 6.804688 134.015625 2.105469 129.316406 2.105469 123.570313 L 2.105469 18.164063 C 2.105469 12.417969 6.804688 7.71875 12.550781 7.71875 "/>
</clipPath>
<clipPath id="clip9">
  <path d="M 111 7 L 424 7 L 424 135 L 111 135 Z M 111 7 "/>
</clipPath>
<clipPath id="clip10">
  <path d="M 12.550781 7.71875 L 412.648438 7.71875 C 418.394531 7.71875 423.09375 12.417969 423.09375 18.164063 L 423.09375 123.570313 C 423.09375 129.316406 418.394531 134.015625 412.648438 134.015625 L 12.550781 134.015625 C 6.804688 134.015625 2.105469 129.316406 2.105469 123.570313 L 2.105469 18.164063 C 2.105469 12.417969 6.804688 7.71875 12.550781 7.71875 "/>
</clipPath>
<clipPath id="clip11">
  <path d="M 342 25 L 352 25 L 352 35 L 342 35 Z M 342 25 "/>
</clipPath>
<clipPath id="clip12">
  <path d="M 12.550781 7.71875 L 412.648438 7.71875 C 418.394531 7.71875 423.09375 12.417969 423.09375 18.164063 L 423.09375 123.570313 C 423.09375 129.316406 418.394531 134.015625 412.648438 134.015625 L 12.550781 134.015625 C 6.804688 134.015625 2.105469 129.316406 2.105469 123.570313 L 2.105469 18.164063 C 2.105469 12.417969 6.804688 7.71875 12.550781 7.71875 "/>
</clipPath>
<clipPath id="clip13">
  <path d="M 14 107 L 409 107 L 409 122 L 14 122 Z M 14 107 "/>
</clipPath>
<clipPath id="clip14">
  <path d="M 12.550781 7.71875 L 412.648438 7.71875 C 418.394531 7.71875 423.09375 12.417969 423.09375 18.164063 L 423.09375 123.570313 C 423.09375 129.316406 418.394531 134.015625 412.648438 134.015625 L 12.550781 134.015625 C 6.804688 134.015625 2.105469 129.316406 2.105469 123.570313 L 2.105469 18.164063 C 2.105469 12.417969 6.804688 7.71875 12.550781 7.71875 "/>
</clipPath>
<clipPath id="clip15">
  <path d="M 348 37 L 410 37 L 410 99 L 348 99 Z M 348 37 "/>
</clipPath>
<clipPath id="clip16">
  <path d="M 12.550781 7.71875 L 412.648438 7.71875 C 418.394531 7.71875 423.09375 12.417969 423.09375 18.164063 L 423.09375 123.570313 C 423.09375 129.316406 418.394531 134.015625 412.648438 134.015625 L 12.550781 134.015625 C 6.804688 134.015625 2.105469 129.316406 2.105469 123.570313 L 2.105469 18.164063 C 2.105469 12.417969 6.804688 7.71875 12.550781 7.71875 "/>
</clipPath>
<clipPath id="clip17">
  <path d="M 111 39 L 192 39 L 192 98 L 111 98 Z M 111 39 "/>
</clipPath>
<clipPath id="clip18">
  <path d="M 12.550781 7.71875 L 412.648438 7.71875 C 418.394531 7.71875 423.09375 12.417969 423.09375 18.164063 L 423.09375 123.570313 C 423.09375 129.316406 418.394531 134.015625 412.648438 134.015625 L 12.550781 134.015625 C 6.804688 134.015625 2.105469 129.316406 2.105469 123.570313 L 2.105469 18.164063 C 2.105469 12.417969 6.804688 7.71875 12.550781 7.71875 "/>
</clipPath>
<clipPath id="clip19">
  <path d="M 183 39 L 244 39 L 244 98 L 183 98 Z M 183 39 "/>
</clipPath>
<clipPath id="clip20">
  <path d="M 12.550781 7.71875 L 412.648438 7.71875 C 418.394531 7.71875 423.09375 12.417969 423.09375 18.164063 L 423.09375 123.570313 C 423.09375 129.316406 418.394531 134.015625 412.648438 134.015625 L 12.550781 134.015625 C 6.804688 134.015625 2.105469 129.316406 2.105469 123.570313 L 2.105469 18.164063 C 2.105469 12.417969 6.804688 7.71875 12.550781 7.71875 "/>
</clipPath>
<clipPath id="clip21">
  <path d="M 243 39 L 298 39 L 298 98 L 243 98 Z M 243 39 "/>
</clipPath>
<clipPath id="clip22">
  <path d="M 12.550781 7.71875 L 412.648438 7.71875 C 418.394531 7.71875 423.09375 12.417969 423.09375 18.164063 L 423.09375 123.570313 C 423.09375 129.316406 418.394531 134.015625 412.648438 134.015625 L 12.550781 134.015625 C 6.804688 134.015625 2.105469 129.316406 2.105469 123.570313 L 2.105469 18.164063 C 2.105469 12.417969 6.804688 7.71875 12.550781 7.71875 "/>
</clipPath>
<clipPath id="clip23">
  <path d="M 288 39 L 351 39 L 351 98 L 288 98 Z M 288 39 "/>
</clipPath>
<clipPath id="clip24">
  <path d="M 12.550781 7.71875 L 412.648438 7.71875 C 418.394531 7.71875 423.09375 12.417969 423.09375 18.164063 L 423.09375 123.570313 C 423.09375 129.316406 418.394531 134.015625 412.648438 134.015625 L 12.550781 134.015625 C 6.804688 134.015625 2.105469 129.316406 2.105469 123.570313 L 2.105469 18.164063 C 2.105469 12.417969 6.804688 7.71875 12.550781 7.71875 "/>
</clipPath>
<clipPath id="clip25">
  <path d="M 59 15 L 342 15 L 342 69 L 59 69 Z M 59 15 "/>
</clipPath>
<clipPath id="clip26">
  <path d="M 12.550781 7.71875 L 412.648438 7.71875 C 418.394531 7.71875 423.09375 12.417969 423.09375 18.164063 L 423.09375 123.570313 C 423.09375 129.316406 418.394531 134.015625 412.648438 134.015625 L 12.550781 134.015625 C 6.804688 134.015625 2.105469 129.316406 2.105469 123.570313 L 2.105469 18.164063 C 2.105469 12.417969 6.804688 7.71875 12.550781 7.71875 "/>
</clipPath>
<clipPath id="clip27">
  <path d="M 0 5 L 425.195313 5 L 425.195313 137 L 0 137 Z M 0 5 "/>
</clipPath>
</defs>
<g id="surface1">
<path style=" stroke:none;fill-rule:evenodd;fill:rgb(14.01825%,30.244446%,59.521484%);fill-opacity:1;" d="M 12.550781 7.71875 L 412.648438 7.71875 C 418.394531 7.71875 423.09375 12.417969 423.09375 18.164063 L 423.09375 123.570313 C 423.09375 129.316406 418.394531 134.015625 412.648438 134.015625 L 12.550781 134.015625 C 6.804688 134.015625 2.105469 129.316406 2.105469 123.570313 L 2.105469 18.164063 C 2.105469 12.417969 6.804688 7.71875 12.550781 7.71875 "/>
<g clip-path="url(#clip1)" clip-rule="nonzero">
<g clip-path="url(#clip2)" clip-rule="evenodd">
<path style=" stroke:none;fill-rule:evenodd;fill:rgb(92.939758%,10.978699%,14.118958%);fill-opacity:1;" d="M 2.105469 134.015625 L 111.335938 134.015625 L 111.335938 7.71875 L 2.105469 7.71875 Z M 2.105469 134.015625 "/>
</g>
</g>
<g clip-path="url(#clip3)" clip-rule="nonzero">
<g clip-path="url(#clip4)" clip-rule="evenodd">
<path style=" stroke:none;fill-rule:evenodd;fill:rgb(100%,100%,100%);fill-opacity:1;" d="M 75.390625 76.835938 L 80.992188 58.972656 L 81.15625 58.972656 L 86.351563 76.835938 Z M 50.953125 97.535156 L 68.894531 97.535156 L 71.492188 89.253906 L 89.921875 89.253906 L 92.359375 97.535156 L 110.867188 97.535156 L 89.761719 39.570313 L 72.304688 39.570313 Z M 50.953125 97.535156 "/>
</g>
</g>
<g clip-path="url(#clip5)" clip-rule="nonzero">
<g clip-path="url(#clip6)" clip-rule="evenodd">
<path style=" stroke:none;fill-rule:evenodd;fill:rgb(100%,100%,100%);fill-opacity:1;" d="M 14.832031 97.535156 L 32.691406 97.535156 L 32.691406 75.453125 L 55.828125 75.453125 L 55.828125 61.652344 L 32.691406 61.652344 L 32.691406 54.425781 L 59.644531 54.425781 L 59.644531 39.570313 L 14.832031 39.570313 Z M 14.832031 97.535156 "/>
</g>
</g>
<g clip-path="url(#clip7)" clip-rule="nonzero">
<g clip-path="url(#clip8)" clip-rule="evenodd">
<path style=" stroke:none;fill-rule:evenodd;fill:rgb(92.939758%,10.978699%,14.118958%);fill-opacity:1;" d="M 59.644531 68.289063 C 122.023438 20.105469 244.433594 3.539063 341.496094 29.835938 C 227.753906 12.324219 129.96875 24.386719 59.644531 68.289063 "/>
</g>
</g>
<g clip-path="url(#clip9)" clip-rule="nonzero">
<g clip-path="url(#clip10)" clip-rule="evenodd">
<path style=" stroke:none;fill-rule:evenodd;fill:rgb(12.44812%,34.486389%,67.327881%);fill-opacity:1;" d="M 111.335938 7.71875 L 423.09375 7.71875 L 423.09375 134.015625 L 111.335938 134.015625 Z M 111.335938 7.71875 "/>
</g>
</g>
<g clip-path="url(#clip11)" clip-rule="nonzero">
<g clip-path="url(#clip12)" clip-rule="evenodd">
<path style=" stroke:none;fill-rule:evenodd;fill:rgb(100%,100%,100%);fill-opacity:1;" d="M 347.007813 25.667969 C 349.316406 25.667969 351.1875 27.539063 351.1875 29.847656 C 351.1875 32.152344 349.316406 34.023438 347.007813 34.023438 C 344.703125 34.023438 342.832031 32.152344 342.832031 29.847656 C 342.832031 27.539063 344.703125 25.667969 347.007813 25.667969 "/>
</g>
</g>
<g clip-path="url(#clip13)" clip-rule="nonzero">
<g clip-path="url(#clip14)" clip-rule="evenodd">
<path style=" stroke:none;fill-rule:evenodd;fill:rgb(100%,100%,100%);fill-opacity:1;" d="M 14.832031 107.953125 L 24.179688 107.953125 L 24.179688 110.003906 L 17.203125 110.003906 L 17.203125 113.546875 L 23.324219 113.546875 L 23.324219 115.480469 L 17.203125 115.480469 L 17.203125 121.492188 L 14.832031 121.492188 Z M 28.652344 107.953125 L 31.171875 107.953125 L 36.386719 121.492188 L 33.847656 121.492188 L 32.578125 117.90625 L 27.171875 117.90625 L 25.902344 121.492188 L 23.457031 121.492188 Z M 27.820313 116.105469 L 31.949219 116.105469 L 29.921875 110.285156 L 29.867188 110.285156 Z M 46.8125 112.257813 C 46.710938 111.867188 46.574219 111.507813 46.398438 111.175781 C 46.21875 110.847656 45.992188 110.566406 45.714844 110.324219 C 45.4375 110.085938 45.109375 109.898438 44.738281 109.765625 C 44.363281 109.632813 43.933594 109.566406 43.441406 109.566406 C 42.71875 109.566406 42.097656 109.710938 41.570313 110.003906 C 41.046875 110.292969 40.621094 110.679688 40.292969 111.167969 C 39.964844 111.65625 39.71875 112.207031 39.5625 112.828125 C 39.40625 113.445313 39.324219 114.078125 39.324219 114.722656 C 39.324219 115.367188 39.40625 116 39.5625 116.617188 C 39.71875 117.238281 39.964844 117.789063 40.292969 118.277344 C 40.621094 118.765625 41.046875 119.152344 41.570313 119.441406 C 42.097656 119.734375 42.71875 119.878906 43.441406 119.878906 C 43.96875 119.878906 44.4375 119.789063 44.84375 119.605469 C 45.246094 119.421875 45.59375 119.167969 45.886719 118.847656 C 46.175781 118.523438 46.402344 118.148438 46.566406 117.71875 C 46.730469 117.289063 46.839844 116.828125 46.890625 116.332031 L 49.203125 116.332031 C 49.152344 117.144531 48.976563 117.882813 48.679688 118.550781 C 48.382813 119.222656 47.984375 119.800781 47.476563 120.285156 C 46.972656 120.773438 46.378906 121.148438 45.695313 121.414063 C 45.011719 121.679688 44.261719 121.8125 43.441406 121.8125 C 42.429688 121.8125 41.523438 121.625 40.71875 121.253906 C 39.917969 120.878906 39.238281 120.371094 38.679688 119.726563 C 38.125 119.082031 37.699219 118.332031 37.402344 117.472656 C 37.105469 116.613281 36.957031 115.695313 36.957031 114.722656 C 36.957031 113.761719 37.105469 112.851563 37.402344 111.992188 C 37.699219 111.132813 38.125 110.382813 38.679688 109.738281 C 39.238281 109.09375 39.917969 108.582031 40.71875 108.203125 C 41.523438 107.820313 42.429688 107.632813 43.441406 107.632813 C 44.199219 107.632813 44.910156 107.738281 45.582031 107.945313 C 46.25 108.152344 46.84375 108.457031 47.355469 108.855469 C 47.867188 109.253906 48.28125 109.738281 48.59375 110.304688 C 48.910156 110.875 49.109375 111.523438 49.183594 112.257813 Z M 51.210938 107.953125 L 53.582031 107.953125 L 53.582031 115.839844 C 53.582031 116.296875 53.605469 116.757813 53.648438 117.226563 C 53.691406 117.691406 53.820313 118.113281 54.027344 118.484375 C 54.234375 118.859375 54.550781 119.164063 54.976563 119.40625 C 55.398438 119.644531 55.996094 119.765625 56.765625 119.765625 C 57.539063 119.765625 58.132813 119.644531 58.558594 119.40625 C 58.980469 119.164063 59.296875 118.859375 59.507813 118.484375 C 59.714844 118.113281 59.839844 117.691406 59.886719 117.226563 C 59.929688 116.757813 59.953125 116.296875 59.953125 115.839844 L 59.953125 107.953125 L 62.320313 107.953125 L 62.320313 116.617188 C 62.320313 117.492188 62.1875 118.25 61.921875 118.894531 C 61.65625 119.539063 61.28125 120.078125 60.792969 120.515625 C 60.308594 120.949219 59.722656 121.277344 59.042969 121.492188 C 58.359375 121.707031 57.601563 121.8125 56.765625 121.8125 C 55.933594 121.8125 55.175781 121.707031 54.492188 121.492188 C 53.808594 121.277344 53.226563 120.949219 52.738281 120.515625 C 52.25 120.078125 51.875 119.539063 51.609375 118.894531 C 51.34375 118.25 51.210938 117.492188 51.210938 116.617188 Z M 65.050781 107.953125 L 67.421875 107.953125 L 67.421875 119.441406 L 74.300781 119.441406 L 74.300781 121.492188 L 65.050781 121.492188 Z M 75.933594 107.953125 L 81.542969 107.953125 C 82.582031 107.953125 83.476563 108.132813 84.234375 108.484375 C 84.996094 108.839844 85.613281 109.324219 86.09375 109.9375 C 86.574219 110.550781 86.929688 111.265625 87.164063 112.085938 C 87.398438 112.910156 87.515625 113.789063 87.515625 114.722656 C 87.515625 115.65625 87.398438 116.535156 87.164063 117.359375 C 86.929688 118.179688 86.574219 118.894531 86.09375 119.507813 C 85.613281 120.121094 84.996094 120.605469 84.234375 120.960938 C 83.476563 121.3125 82.582031 121.492188 81.542969 121.492188 L 75.933594 121.492188 Z M 78.300781 119.558594 L 80.632813 119.558594 C 81.558594 119.558594 82.3125 119.433594 82.898438 119.1875 C 83.488281 118.941406 83.949219 118.597656 84.285156 118.164063 C 84.617188 117.726563 84.847656 117.214844 84.964844 116.628906 C 85.085938 116.039063 85.144531 115.40625 85.144531 114.722656 C 85.144531 114.039063 85.085938 113.40625 84.964844 112.816406 C 84.847656 112.230469 84.617188 111.71875 84.285156 111.28125 C 83.949219 110.84375 83.488281 110.503906 82.898438 110.257813 C 82.3125 110.011719 81.558594 109.886719 80.632813 109.886719 L 78.300781 109.886719 Z M 93.242188 107.953125 L 95.761719 107.953125 L 100.976563 121.492188 L 98.433594 121.492188 L 97.164063 117.90625 L 91.761719 117.90625 L 90.492188 121.492188 L 88.046875 121.492188 Z M 92.40625 116.105469 L 96.539063 116.105469 L 94.511719 110.285156 L 94.453125 110.285156 Z M 102.265625 107.953125 L 107.875 107.953125 C 108.914063 107.953125 109.808594 108.132813 110.566406 108.484375 C 111.328125 108.839844 111.945313 109.324219 112.425781 109.9375 C 112.90625 110.550781 113.261719 111.265625 113.496094 112.085938 C 113.730469 112.910156 113.847656 113.789063 113.847656 114.722656 C 113.847656 115.65625 113.730469 116.535156 113.496094 117.359375 C 113.261719 118.179688 112.90625 118.894531 112.425781 119.507813 C 111.945313 120.121094 111.328125 120.605469 110.566406 120.960938 C 109.808594 121.3125 108.914063 121.492188 107.875 121.492188 L 102.265625 121.492188 Z M 104.632813 119.558594 L 106.964844 119.558594 C 107.886719 119.558594 108.644531 119.433594 109.230469 119.1875 C 109.820313 118.941406 110.28125 118.597656 110.617188 118.164063 C 110.949219 117.726563 111.179688 117.214844 111.296875 116.628906 C 111.417969 116.039063 111.476563 115.40625 111.476563 114.722656 C 111.476563 114.039063 111.417969 113.40625 111.296875 112.816406 C 111.179688 112.230469 110.949219 111.71875 110.617188 111.28125 C 110.28125 110.84375 109.820313 110.503906 109.230469 110.257813 C 108.644531 110.011719 107.886719 109.886719 106.964844 109.886719 L 104.632813 109.886719 Z M 115.953125 107.953125 L 125.695313 107.953125 L 125.695313 110.003906 L 118.320313 110.003906 L 118.320313 113.546875 L 125.148438 113.546875 L 125.148438 115.480469 L 118.320313 115.480469 L 118.320313 119.441406 L 125.828125 119.441406 L 125.828125 121.492188 L 115.953125 121.492188 Z M 133.128906 107.953125 L 136.464844 107.953125 L 140.199219 118.550781 L 140.238281 118.550781 L 143.875 107.953125 L 147.175781 107.953125 L 147.175781 121.492188 L 144.917969 121.492188 L 144.917969 111.042969 L 144.882813 111.042969 L 141.128906 121.492188 L 139.175781 121.492188 L 135.421875 111.042969 L 135.382813 111.042969 L 135.382813 121.492188 L 133.128906 121.492188 Z M 150.019531 107.953125 L 159.761719 107.953125 L 159.761719 110.003906 L 152.390625 110.003906 L 152.390625 113.546875 L 159.214844 113.546875 L 159.214844 115.480469 L 152.390625 115.480469 L 152.390625 119.441406 L 159.894531 119.441406 L 159.894531 121.492188 L 150.019531 121.492188 Z M 160.671875 107.953125 L 171.632813 107.953125 L 171.632813 110.003906 L 167.328125 110.003906 L 167.328125 121.492188 L 164.957031 121.492188 L 164.957031 110.003906 L 160.671875 110.003906 Z M 173.203125 107.953125 L 179.667969 107.953125 C 181.160156 107.953125 182.277344 108.277344 183.023438 108.921875 C 183.769531 109.566406 184.144531 110.464844 184.144531 111.613281 C 184.144531 112.257813 184.046875 112.792969 183.859375 113.214844 C 183.667969 113.640625 183.449219 113.980469 183.195313 114.238281 C 182.941406 114.5 182.691406 114.683594 182.445313 114.796875 C 182.199219 114.910156 182.019531 114.988281 181.90625 115.027344 L 181.90625 115.0625 C 182.109375 115.089844 182.324219 115.152344 182.558594 115.253906 C 182.792969 115.355469 183.011719 115.515625 183.214844 115.738281 C 183.417969 115.957031 183.582031 116.246094 183.714844 116.597656 C 183.847656 116.953125 183.914063 117.394531 183.914063 117.925781 C 183.914063 118.722656 183.976563 119.445313 184.09375 120.097656 C 184.214844 120.746094 184.402344 121.210938 184.65625 121.492188 L 182.113281 121.492188 C 181.9375 121.199219 181.832031 120.878906 181.800781 120.523438 C 181.769531 120.167969 181.753906 119.828125 181.753906 119.5 C 181.753906 118.878906 181.714844 118.347656 181.640625 117.898438 C 181.566406 117.449219 181.425781 117.078125 181.222656 116.78125 C 181.019531 116.480469 180.746094 116.265625 180.398438 116.125 C 180.050781 115.984375 179.605469 115.917969 179.0625 115.917969 L 175.574219 115.917969 L 175.574219 121.492188 L 173.203125 121.492188 Z M 175.574219 114.117188 L 179.460938 114.117188 C 180.21875 114.117188 180.792969 113.9375 181.183594 113.574219 C 181.578125 113.214844 181.773438 112.675781 181.773438 111.953125 C 181.773438 111.523438 181.710938 111.175781 181.582031 110.902344 C 181.457031 110.632813 181.285156 110.417969 181.0625 110.265625 C 180.839844 110.117188 180.589844 110.015625 180.304688 109.964844 C 180.019531 109.914063 179.726563 109.886719 179.421875 109.886719 L 175.574219 109.886719 Z M 192.3125 109.566406 C 191.59375 109.566406 190.96875 109.710938 190.445313 110.003906 C 189.921875 110.292969 189.496094 110.679688 189.167969 111.167969 C 188.839844 111.65625 188.59375 112.207031 188.4375 112.828125 C 188.277344 113.445313 188.199219 114.078125 188.199219 114.722656 C 188.199219 115.367188 188.277344 116 188.4375 116.617188 C 188.59375 117.238281 188.839844 117.789063 189.167969 118.277344 C 189.496094 118.765625 189.921875 119.152344 190.445313 119.441406 C 190.96875 119.734375 191.59375 119.878906 192.3125 119.878906 C 193.035156 119.878906 193.65625 119.734375 194.179688 119.441406 C 194.707031 119.152344 195.132813 118.765625 195.460938 118.277344 C 195.789063 117.789063 196.03125 117.238281 196.191406 116.617188 C 196.347656 116 196.425781 115.367188 196.425781 114.722656 C 196.425781 114.078125 196.347656 113.445313 196.191406 112.828125 C 196.03125 112.207031 195.789063 111.65625 195.460938 111.167969 C 195.132813 110.679688 194.707031 110.292969 194.179688 110.003906 C 193.65625 109.710938 193.035156 109.566406 192.3125 109.566406 Z M 192.3125 107.632813 C 193.324219 107.632813 194.230469 107.820313 195.035156 108.203125 C 195.835938 108.582031 196.515625 109.09375 197.070313 109.738281 C 197.628906 110.382813 198.054688 111.132813 198.351563 111.992188 C 198.648438 112.851563 198.796875 113.761719 198.796875 114.722656 C 198.796875 115.695313 198.648438 116.613281 198.351563 117.472656 C 198.054688 118.332031 197.628906 119.082031 197.070313 119.726563 C 196.515625 120.371094 195.835938 120.878906 195.035156 121.253906 C 194.230469 121.625 193.324219 121.8125 192.3125 121.8125 C 191.300781 121.8125 190.394531 121.625 189.59375 121.253906 C 188.789063 120.878906 188.109375 120.371094 187.554688 119.726563 C 187 119.082031 186.574219 118.332031 186.277344 117.472656 C 185.980469 116.613281 185.828125 115.695313 185.828125 114.722656 C 185.828125 113.761719 185.980469 112.851563 186.277344 111.992188 C 186.574219 111.132813 187 110.382813 187.554688 109.738281 C 188.109375 109.09375 188.789063 108.582031 189.59375 108.203125 C 190.394531 107.820313 191.300781 107.632813 192.3125 107.632813 Z M 200.957031 107.953125 L 206.929688 107.953125 C 207.890625 107.953125 208.675781 108.09375 209.28125 108.371094 C 209.886719 108.648438 210.355469 108.996094 210.683594 109.414063 C 211.011719 109.832031 211.238281 110.285156 211.355469 110.78125 C 211.476563 111.273438 211.535156 111.726563 211.535156 112.144531 C 211.535156 112.5625 211.476563 113.011719 211.355469 113.5 C 211.238281 113.988281 211.011719 114.4375 210.683594 114.855469 C 210.355469 115.273438 209.886719 115.617188 209.28125 115.886719 C 208.675781 116.160156 207.890625 116.296875 206.929688 116.296875 L 203.328125 116.296875 L 203.328125 121.492188 L 200.957031 121.492188 Z M 203.328125 114.363281 L 206.796875 114.363281 C 207.0625 114.363281 207.335938 114.324219 207.613281 114.25 C 207.890625 114.171875 208.148438 114.050781 208.378906 113.878906 C 208.613281 113.707031 208.804688 113.480469 208.949219 113.195313 C 209.09375 112.910156 209.167969 112.554688 209.167969 112.125 C 209.167969 111.683594 209.105469 111.316406 208.976563 111.027344 C 208.851563 110.734375 208.679688 110.503906 208.464844 110.332031 C 208.25 110.164063 208.003906 110.046875 207.726563 109.984375 C 207.449219 109.917969 207.152344 109.886719 206.835938 109.886719 L 203.328125 109.886719 Z M 219.367188 109.566406 C 218.644531 109.566406 218.023438 109.710938 217.5 110.003906 C 216.972656 110.292969 216.546875 110.679688 216.21875 111.167969 C 215.890625 111.65625 215.648438 112.207031 215.488281 112.828125 C 215.332031 113.445313 215.253906 114.078125 215.253906 114.722656 C 215.253906 115.367188 215.332031 116 215.488281 116.617188 C 215.648438 117.238281 215.890625 117.789063 216.21875 118.277344 C 216.546875 118.765625 216.972656 119.152344 217.5 119.441406 C 218.023438 119.734375 218.644531 119.878906 219.367188 119.878906 C 220.085938 119.878906 220.707031 119.734375 221.234375 119.441406 C 221.757813 119.152344 222.183594 118.765625 222.511719 118.277344 C 222.839844 117.789063 223.085938 117.238281 223.242188 116.617188 C 223.402344 116 223.480469 115.367188 223.480469 114.722656 C 223.480469 114.078125 223.402344 113.445313 223.242188 112.828125 C 223.085938 112.207031 222.839844 111.65625 222.511719 111.167969 C 222.183594 110.679688 221.757813 110.292969 221.234375 110.003906 C 220.707031 109.710938 220.085938 109.566406 219.367188 109.566406 Z M 219.367188 107.632813 C 220.378906 107.632813 221.285156 107.820313 222.085938 108.203125 C 222.890625 108.582031 223.570313 109.09375 224.125 109.738281 C 224.679688 110.382813 225.105469 111.132813 225.402344 111.992188 C 225.703125 112.851563 225.851563 113.761719 225.851563 114.722656 C 225.851563 115.695313 225.703125 116.613281 225.402344 117.472656 C 225.105469 118.332031 224.679688 119.082031 224.125 119.726563 C 223.570313 120.371094 222.890625 120.878906 222.085938 121.253906 C 221.285156 121.625 220.378906 121.8125 219.367188 121.8125 C 218.355469 121.8125 217.449219 121.625 216.644531 121.253906 C 215.84375 120.878906 215.164063 120.371094 214.609375 119.726563 C 214.050781 119.082031 213.625 118.332031 213.328125 117.472656 C 213.03125 116.613281 212.882813 115.695313 212.882813 114.722656 C 212.882813 113.761719 213.03125 112.851563 213.328125 111.992188 C 213.625 111.132813 214.050781 110.382813 214.609375 109.738281 C 215.164063 109.09375 215.84375 108.582031 216.644531 108.203125 C 217.449219 107.820313 218.355469 107.632813 219.367188 107.632813 Z M 228.011719 107.953125 L 230.378906 107.953125 L 230.378906 119.441406 L 237.261719 119.441406 L 237.261719 121.492188 L 228.011719 121.492188 Z M 238.894531 107.953125 L 241.261719 107.953125 L 241.261719 121.492188 L 238.894531 121.492188 Z M 242.875 107.953125 L 253.832031 107.953125 L 253.832031 110.003906 L 249.527344 110.003906 L 249.527344 121.492188 L 247.160156 121.492188 L 247.160156 110.003906 L 242.875 110.003906 Z M 257.28125 107.953125 L 259.804688 107.953125 L 265.015625 121.492188 L 262.476563 121.492188 L 261.207031 117.90625 L 255.804688 117.90625 L 254.53125 121.492188 L 252.085938 121.492188 Z M 256.449219 116.105469 L 260.582031 116.105469 L 258.550781 110.285156 L 258.496094 110.285156 Z M 266.210938 107.953125 L 268.714844 107.953125 L 274.894531 117.925781 L 274.929688 117.925781 L 274.929688 107.953125 L 277.1875 107.953125 L 277.1875 121.492188 L 274.683594 121.492188 L 268.523438 111.539063 L 268.464844 111.539063 L 268.464844 121.492188 L 266.210938 121.492188 Z M 283.613281 107.953125 L 286.136719 107.953125 L 291.347656 121.492188 L 288.808594 121.492188 L 287.539063 117.90625 L 282.136719 117.90625 L 280.863281 121.492188 L 278.417969 121.492188 Z M 282.78125 116.105469 L 286.914063 116.105469 L 284.882813 110.285156 L 284.828125 110.285156 Z M 297.90625 107.953125 L 303.519531 107.953125 C 304.554688 107.953125 305.453125 108.132813 306.210938 108.484375 C 306.96875 108.839844 307.589844 109.324219 308.070313 109.9375 C 308.550781 110.550781 308.90625 111.265625 309.140625 112.085938 C 309.375 112.910156 309.492188 113.789063 309.492188 114.722656 C 309.492188 115.65625 309.375 116.535156 309.140625 117.359375 C 308.90625 118.179688 308.550781 118.894531 308.070313 119.507813 C 307.589844 120.121094 306.96875 120.605469 306.210938 120.960938 C 305.453125 121.3125 304.554688 121.492188 303.519531 121.492188 L 297.90625 121.492188 Z M 300.277344 119.558594 L 302.609375 119.558594 C 303.53125 119.558594 304.285156 119.433594 304.875 119.1875 C 305.460938 118.941406 305.921875 118.597656 306.257813 118.164063 C 306.59375 117.726563 306.820313 117.214844 306.941406 116.628906 C 307.0625 116.039063 307.121094 115.40625 307.121094 114.722656 C 307.121094 114.039063 307.0625 113.40625 306.941406 112.816406 C 306.820313 112.230469 306.59375 111.71875 306.257813 111.28125 C 305.921875 110.84375 305.460938 110.503906 304.875 110.257813 C 304.285156 110.011719 303.53125 109.886719 302.609375 109.886719 L 300.277344 109.886719 Z M 311.59375 107.953125 L 321.339844 107.953125 L 321.339844 110.003906 L 313.964844 110.003906 L 313.964844 113.546875 L 320.789063 113.546875 L 320.789063 115.480469 L 313.964844 115.480469 L 313.964844 119.441406 L 321.472656 119.441406 L 321.472656 121.492188 L 311.59375 121.492188 Z M 328.769531 107.953125 L 332.109375 107.953125 L 335.84375 118.550781 L 335.878906 118.550781 L 339.519531 107.953125 L 342.820313 107.953125 L 342.820313 121.492188 L 340.5625 121.492188 L 340.5625 111.042969 L 340.523438 111.042969 L 336.769531 121.492188 L 334.820313 121.492188 L 331.066406 111.042969 L 331.027344 111.042969 L 331.027344 121.492188 L 328.769531 121.492188 Z M 349.285156 107.953125 L 351.804688 107.953125 L 357.019531 121.492188 L 354.476563 121.492188 L 353.207031 117.90625 L 347.804688 117.90625 L 346.535156 121.492188 L 344.089844 121.492188 Z M 348.449219 116.105469 L 352.582031 116.105469 L 350.554688 110.285156 L 350.496094 110.285156 Z M 358.210938 107.953125 L 360.714844 107.953125 L 366.894531 117.925781 L 366.933594 117.925781 L 366.933594 107.953125 L 369.1875 107.953125 L 369.1875 121.492188 L 366.6875 121.492188 L 360.523438 111.539063 L 360.46875 111.539063 L 360.46875 121.492188 L 358.210938 121.492188 Z M 375.617188 107.953125 L 378.136719 107.953125 L 383.351563 121.492188 L 380.808594 121.492188 L 379.539063 117.90625 L 374.136719 117.90625 L 372.867188 121.492188 L 370.421875 121.492188 Z M 374.78125 116.105469 L 378.914063 116.105469 L 376.886719 110.285156 L 376.828125 110.285156 Z M 384.488281 107.953125 L 386.855469 107.953125 L 386.855469 115.839844 C 386.855469 116.296875 386.878906 116.757813 386.921875 117.226563 C 386.96875 117.691406 387.09375 118.113281 387.300781 118.484375 C 387.511719 118.859375 387.828125 119.164063 388.25 119.40625 C 388.675781 119.644531 389.269531 119.765625 390.042969 119.765625 C 390.8125 119.765625 391.410156 119.644531 391.832031 119.40625 C 392.257813 119.164063 392.574219 118.859375 392.78125 118.484375 C 392.988281 118.113281 393.117188 117.691406 393.160156 117.226563 C 393.203125 116.757813 393.226563 116.296875 393.226563 115.839844 L 393.226563 107.953125 L 395.597656 107.953125 L 395.597656 116.617188 C 395.597656 117.492188 395.464844 118.25 395.199219 118.894531 C 394.933594 119.539063 394.558594 120.078125 394.070313 120.515625 C 393.585938 120.949219 393 121.277344 392.316406 121.492188 C 391.632813 121.707031 390.875 121.8125 390.042969 121.8125 C 389.207031 121.8125 388.449219 121.707031 387.765625 121.492188 C 387.085938 121.277344 386.5 120.949219 386.011719 120.515625 C 385.527344 120.078125 385.152344 119.539063 384.886719 118.894531 C 384.621094 118.25 384.488281 117.492188 384.488281 116.617188 Z M 399.882813 116.976563 C 399.882813 117.496094 399.96875 117.9375 400.148438 118.304688 C 400.324219 118.671875 400.570313 118.972656 400.886719 119.207031 C 401.203125 119.441406 401.566406 119.609375 401.976563 119.71875 C 402.386719 119.824219 402.832031 119.878906 403.3125 119.878906 C 403.832031 119.878906 404.273438 119.820313 404.640625 119.699219 C 405.007813 119.578125 405.304688 119.425781 405.53125 119.234375 C 405.757813 119.042969 405.921875 118.828125 406.023438 118.582031 C 406.125 118.335938 406.175781 118.085938 406.175781 117.832031 C 406.175781 117.3125 406.058594 116.929688 405.824219 116.683594 C 405.589844 116.4375 405.335938 116.265625 405.054688 116.164063 C 404.578125 115.984375 404.015625 115.820313 403.378906 115.660156 C 402.742188 115.503906 401.953125 115.296875 401.019531 115.046875 C 400.4375 114.894531 399.953125 114.695313 399.566406 114.449219 C 399.183594 114.203125 398.875 113.925781 398.648438 113.625 C 398.421875 113.320313 398.261719 112.996094 398.164063 112.65625 C 398.070313 112.316406 398.023438 111.96875 398.023438 111.613281 C 398.023438 110.929688 398.164063 110.339844 398.449219 109.839844 C 398.734375 109.34375 399.109375 108.929688 399.578125 108.597656 C 400.046875 108.269531 400.578125 108.027344 401.171875 107.871094 C 401.765625 107.710938 402.363281 107.632813 402.972656 107.632813 C 403.679688 107.632813 404.347656 107.722656 404.972656 107.90625 C 405.597656 108.089844 406.148438 108.367188 406.621094 108.730469 C 407.09375 109.097656 407.46875 109.550781 407.75 110.085938 C 408.027344 110.625 408.164063 111.246094 408.164063 111.953125 L 405.796875 111.953125 C 405.734375 111.082031 405.4375 110.464844 404.90625 110.105469 C 404.375 109.746094 403.699219 109.566406 402.875 109.566406 C 402.597656 109.566406 402.3125 109.59375 402.023438 109.652344 C 401.734375 109.707031 401.46875 109.804688 401.226563 109.9375 C 400.988281 110.070313 400.789063 110.25 400.628906 110.476563 C 400.472656 110.703125 400.394531 110.988281 400.394531 111.328125 C 400.394531 111.808594 400.542969 112.183594 400.839844 112.457031 C 401.136719 112.730469 401.523438 112.933594 402.003906 113.074219 C 402.054688 113.085938 402.253906 113.140625 402.601563 113.234375 C 402.949219 113.328125 403.335938 113.433594 403.765625 113.546875 C 404.195313 113.660156 404.617188 113.769531 405.027344 113.878906 C 405.4375 113.988281 405.734375 114.066406 405.910156 114.117188 C 406.351563 114.253906 406.738281 114.445313 407.066406 114.683594 C 407.394531 114.925781 407.667969 115.199219 407.890625 115.507813 C 408.113281 115.820313 408.277344 116.152344 408.382813 116.503906 C 408.492188 116.859375 408.542969 117.210938 408.542969 117.566406 C 408.542969 118.324219 408.390625 118.972656 408.082031 119.507813 C 407.769531 120.046875 407.363281 120.484375 406.859375 120.828125 C 406.351563 121.167969 405.777344 121.417969 405.132813 121.574219 C 404.488281 121.734375 403.832031 121.8125 403.160156 121.8125 C 402.390625 121.8125 401.664063 121.71875 400.980469 121.527344 C 400.296875 121.339844 399.703125 121.046875 399.199219 120.65625 C 398.691406 120.265625 398.289063 119.761719 397.984375 119.148438 C 397.683594 118.535156 397.523438 117.8125 397.511719 116.976563 Z M 399.882813 116.976563 "/>
</g>
</g>
<g clip-path="url(#clip15)" clip-rule="nonzero">
<g clip-path="url(#clip16)" clip-rule="evenodd">
<path style=" stroke:none;fill-rule:evenodd;fill:rgb(100%,100%,100%);fill-opacity:1;" d="M 349.292969 67.894531 C 352.523438 54.960938 358.5625 47.570313 366.464844 42.746094 C 371.230469 39.84375 376.414063 37.839844 384.476563 37.679688 C 391.550781 37.539063 395.675781 39.203125 399.277344 41.402344 C 408.261719 46.890625 410.644531 57.699219 408.480469 67.894531 C 405.777344 80.640625 399.769531 88.3125 391.785156 93.535156 C 387.117188 96.585938 381.582031 98.90625 373.453125 98.90625 C 366.339844 98.90625 361.671875 97.117188 357.992188 94.695313 C 349.171875 88.890625 346.851563 77.648438 349.292969 67.894531 Z M 366.667969 74.144531 C 366.957031 80.761719 370.253906 84.171875 375.484375 84.367188 C 386.398438 84.769531 390.664063 71.882813 391.097656 62.945313 C 391.355469 57.609375 388.003906 51.78125 381.777344 52.226563 C 371.226563 52.976563 366.253906 64.644531 366.667969 74.144531 "/>
</g>
</g>
<g clip-path="url(#clip17)" clip-rule="nonzero">
<g clip-path="url(#clip18)" clip-rule="evenodd">
<path style=" stroke:none;fill-rule:evenodd;fill:rgb(100%,100%,100%);fill-opacity:1;" d="M 111.804688 97.535156 L 122.777344 39.570313 L 148.703125 39.570313 L 150.695313 73.421875 L 165.523438 39.570313 L 191.128906 39.570313 L 180.15625 97.535156 L 163.214844 97.535156 L 170.21875 59.960938 L 152.714844 97.535156 L 139.40625 97.535156 L 136.359375 59.960938 L 129.117188 97.535156 Z M 111.804688 97.535156 "/>
</g>
</g>
<g clip-path="url(#clip19)" clip-rule="nonzero">
<g clip-path="url(#clip20)" clip-rule="evenodd">
<path style=" stroke:none;fill-rule:evenodd;fill:rgb(100%,100%,100%);fill-opacity:1;" d="M 183.773438 97.535156 L 194.746094 39.570313 L 243.199219 39.570313 L 240.621094 53.695313 L 210.492188 53.695313 L 208.980469 61.492188 L 236.316406 61.492188 L 233.644531 75.617188 L 206.308594 75.617188 L 204.859375 83.410156 L 236.011719 83.410156 L 233.34375 97.535156 Z M 183.773438 97.535156 "/>
</g>
</g>
<g clip-path="url(#clip21)" clip-rule="nonzero">
<g clip-path="url(#clip22)" clip-rule="evenodd">
<path style=" stroke:none;fill-rule:evenodd;fill:rgb(100%,100%,100%);fill-opacity:1;" d="M 251.613281 97.535156 L 260.082031 53.695313 L 243.785156 53.695313 L 246.5 39.570313 L 297.125 39.570313 L 294.441406 53.695313 L 278.097656 53.695313 L 270.03125 97.535156 Z M 251.613281 97.535156 "/>
</g>
</g>
<g clip-path="url(#clip23)" clip-rule="nonzero">
<g clip-path="url(#clip24)" clip-rule="evenodd">
<path style=" stroke:none;fill-rule:evenodd;fill:rgb(100%,100%,100%);fill-opacity:1;" d="M 288.878906 97.535156 L 300.019531 39.570313 L 336.132813 39.570313 C 340.75 39.570313 343.976563 40.894531 345.835938 42.289063 C 348.382813 44.195313 350.425781 48.023438 350.34375 53.113281 C 350.28125 56.953125 348.941406 60.332031 347.144531 63.433594 C 345.332031 66.566406 341.457031 69.371094 338.769531 70.398438 C 341.144531 71.371094 342.8125 73.5 343.769531 76.265625 C 345.199219 80.386719 343.984375 86.359375 343.570313 90.691406 C 343.40625 92.425781 343.289063 96.117188 343.890625 97.535156 L 325.933594 97.535156 C 325.402344 94.136719 326.132813 87.835938 326.582031 84.175781 C 327.046875 80.386719 324.453125 77.265625 322.183594 77.265625 L 310.605469 77.265625 L 306.84375 97.535156 Z M 314.976563 53.695313 L 312.960938 64.570313 L 325.015625 64.574219 C 329.054688 64.578125 331.402344 61.214844 331.460938 57.433594 C 331.503906 54.890625 329.476563 53.695313 326.6875 53.695313 Z M 314.976563 53.695313 "/>
</g>
</g>
<g clip-path="url(#clip25)" clip-rule="nonzero">
<g clip-path="url(#clip26)" clip-rule="evenodd">
<path style=" stroke:none;fill-rule:evenodd;fill:rgb(100%,100%,100%);fill-opacity:1;" d="M 59.644531 68.289063 C 122.023438 17.992188 244.433594 0.695313 341.496094 28.148438 C 227.753906 9.871094 129.96875 22.457031 59.644531 68.289063 "/>
</g>
</g>
<g clip-path="url(#clip27)" clip-rule="nonzero">
<path style=" stroke:none;fill-rule:nonzero;fill:rgb(100%,100%,100%);fill-opacity:1;" d="M 412.648438 5.613281 L 12.546875 5.613281 C 9.097656 5.613281 5.957031 7.023438 3.683594 9.296875 C 1.410156 11.570313 0 14.710938 0 18.160156 L 0 123.570313 C 0 127.023438 1.410156 130.160156 3.683594 132.433594 C 5.957031 134.707031 9.097656 136.117188 12.546875 136.117188 L 412.648438 136.117188 C 416.101563 136.117188 419.238281 134.707031 421.511719 132.433594 C 423.785156 130.160156 425.195313 127.023438 425.195313 123.570313 L 425.195313 18.160156 C 425.195313 14.710938 423.785156 11.570313 421.511719 9.296875 C 419.238281 7.023438 416.101563 5.613281 412.648438 5.613281 Z M 12.546875 9.824219 L 412.648438 9.824219 C 414.9375 9.824219 417.023438 10.761719 418.535156 12.273438 C 420.046875 13.785156 420.988281 15.871094 420.988281 18.160156 L 420.988281 123.570313 C 420.988281 125.863281 420.046875 127.945313 418.535156 129.457031 C 417.023438 130.96875 414.9375 131.910156 412.648438 131.910156 L 12.546875 131.910156 C 10.257813 131.910156 8.171875 130.96875 6.660156 129.457031 C 5.148438 127.945313 4.210938 125.863281 4.210938 123.570313 L 4.210938 18.160156 C 4.210938 15.871094 5.148438 13.785156 6.660156 12.273438 C 8.171875 10.761719 10.257813 9.824219 12.546875 9.824219 "/>
</g>
</g>
</svg>
